<svg width="425" height="80" viewBox="0 0 425 80" fill="none" xmlns="http://www.w3.org/2000/svg">
<path fill-rule="evenodd" clip-rule="evenodd" d="M40 16C26.7452 16 16 26.7452 16 40H0C0 17.9086 17.9086 0 40 0C62.0914 0 80 17.9086 80 40C80 53.2548 90.7452 64 104 64C117.255 64 128 53.2548 128 40C128 17.9086 145.909 0 168 0C190.091 0 208 17.9086 208 40C208 53.2548 218.745 64 232 64C245.255 64 256 53.2548 256 40C256 17.9086 273.909 0 296 0C318.091 0 336 17.9086 336 40C336 53.2548 346.745 64 360 64C373.255 64 384 53.2548 384 40C384 17.9086 401.909 0 424 0C446.091 0 464 17.9086 464 40C464 53.2548 474.745 64 488 64C501.255 64 512 53.2548 512 40H528C528 62.0914 510.091 80 488 80C465.909 80 448 62.0914 448 40C448 26.7452 437.255 16 424 16C410.745 16 400 26.7452 400 40C400 62.0914 382.091 80 360 80C337.909 80 320 62.0914 320 40C320 26.7452 309.255 16 296 16C282.745 16 272 26.7452 272 40C272 62.0914 254.091 80 232 80C209.909 80 192 62.0914 192 40C192 26.7452 181.255 16 168 16C154.745 16 144 26.7452 144 40C144 62.0914 126.091 80 104 80C81.9086 80 64 62.0914 64 40C64 26.7452 53.2548 16 40 16Z" fill="url(#paint0_linear_190_189)"/>
<defs>
<linearGradient id="paint0_linear_190_189" x1="8" y1="72.0001" x2="424" y2="72.0001" gradientUnits="userSpaceOnUse">
<stop stop-color="white"/>
<stop offset="1" stop-color="white" stop-opacity="0"/>
</linearGradient>
</defs>
</svg>
