<svg width="18" height="18" viewBox="0 0 18 19" fill="none" xmlns="http://www.w3.org/2000/svg">
	<g opacity="0.8">
		<path d="M15.1452 7.03203C15.1022 6.92966 15.0298 6.84231 14.9372 6.781C14.8446 6.71969 14.7359 6.68716 14.6249 6.6875H3.3749C3.26384 6.68716 3.15518 6.71969 3.06258 6.781C2.96999 6.84231 2.89762 6.92966 2.85458 7.03203C2.81406 7.13593 2.80378 7.24918 2.82493 7.35868C2.84608 7.46818 2.89781 7.56945 2.97412 7.65078L8.59912 13.2758C8.70663 13.3797 8.85034 13.4379 8.9999 13.4379C9.14946 13.4379 9.29316 13.3797 9.40068 13.2758L15.0257 7.65078C15.102 7.56945 15.1537 7.46818 15.1749 7.35868C15.196 7.24918 15.1857 7.13593 15.1452 7.03203V7.03203Z" fill="black" />
	</g>
</svg>