<svg width="197" height="193" viewBox="0 0 197 193" fill="none" xmlns="http://www.w3.org/2000/svg">
	<path d="M126.472 21.4357L126.711 21.6106L127.006 21.6272L161.989 23.5981L170.366 57.5987L170.436 57.8799L170.645 58.0806L195.773 82.2236L180.009 113.259L179.873 113.527L179.907 113.826L183.848 148.307L151.827 162.101L151.551 162.22L151.386 162.471L132.672 191.035L99.1687 181.181L98.8865 181.098L98.6043 181.181L65.1014 191.035L46.3871 162.471L46.2224 162.22L45.9463 162.101L13.9255 148.307L17.8662 113.826L17.9003 113.527L17.7643 113.259L2.00008 82.2236L27.1285 58.0806L27.3374 57.8799L27.4066 57.5987L35.7836 23.5981L70.7668 21.6272L71.0624 21.6106L71.3013 21.4357L98.8865 1.23937L126.472 21.4357Z" fill="#FFC700" stroke="black" stroke-width="2" />
<path d="M118.217 88.3858C115.865 94.065 112.807 98.1922 111.387 97.6041C109.967 97.016 110.723 91.9353 113.076 86.2561C115.428 80.5768 118.486 76.4497 119.906 77.0378C121.326 77.6259 120.57 82.7066 118.217 88.3858Z" fill="black"/>
<path d="M96.3653 79.3345C94.0129 85.0137 90.9549 89.1409 89.5351 88.5528C88.1153 87.9647 88.8713 82.884 91.2237 77.2048C93.5762 71.5255 96.6342 67.3984 98.054 67.9865C99.4738 68.5746 98.7178 73.6553 96.3653 79.3345Z" fill="black"/>
<path d="M126.35 103.802C120.28 118.455 103.482 125.413 88.8286 119.344L88.4459 120.268C103.609 126.548 120.993 119.348 127.274 104.185L126.35 103.802ZM88.8286 119.344C74.1757 113.274 67.2175 96.4755 73.2869 81.8226L72.363 81.4399C66.0822 96.603 73.2828 113.987 88.4459 120.268L88.8286 119.344ZM95.9034 79.1432C94.7381 81.9564 93.4041 84.3695 92.1988 85.9963C91.5937 86.8128 91.0382 87.4079 90.5702 87.7594C90.0711 88.1343 89.8173 88.1285 89.7264 88.0909L89.3438 89.0148C89.9629 89.2712 90.6237 88.97 91.1708 88.559C91.749 88.1246 92.3712 87.4432 93.0022 86.5916C94.269 84.8819 95.6401 82.3919 96.8273 79.5258L95.9034 79.1432ZM89.7264 88.0909C89.6356 88.0533 89.452 87.8779 89.3642 87.2599C89.2819 86.6804 89.3098 85.8668 89.4594 84.8616C89.7574 82.859 90.5204 80.2094 91.6857 77.3961L90.7618 77.0134C89.5747 79.8795 88.7835 82.6098 88.4703 84.7144C88.3143 85.7628 88.2724 86.6845 88.3741 87.4006C88.4704 88.0781 88.7247 88.7583 89.3438 89.0148L89.7264 88.0909ZM91.6857 77.3961C92.851 74.5829 94.185 72.1698 95.3903 70.543C95.9953 69.7265 96.5509 69.1314 97.0189 68.7798C97.5179 68.4049 97.7718 68.4108 97.8626 68.4484L98.2453 67.5245C97.6262 67.2681 96.9654 67.5693 96.4183 67.9803C95.84 68.4147 95.2179 69.0961 94.5868 69.9477C93.3201 71.6573 91.9489 74.1474 90.7618 77.0134L91.6857 77.3961ZM97.8626 68.4484C97.9534 68.486 98.1371 68.6614 98.2249 69.2794C98.3072 69.8589 98.2793 70.6725 98.1297 71.6777C97.8317 73.6803 97.0687 76.3299 95.9034 79.1432L96.8273 79.5258C98.0144 76.6598 98.8056 73.9295 99.1188 71.8249C99.2748 70.7765 99.3167 69.8547 99.2149 69.1387C99.1187 68.4612 98.8644 67.781 98.2453 67.5245L97.8626 68.4484ZM117.755 88.1945C116.59 91.0077 115.256 93.4208 114.051 95.0475C113.445 95.8641 112.89 96.4592 112.422 96.8107C111.923 97.1856 111.669 97.1798 111.578 97.1422L111.196 98.0661C111.815 98.3225 112.475 98.0213 113.023 97.6103C113.601 97.1759 114.223 96.4945 114.854 95.6429C116.121 93.9332 117.492 91.4432 118.679 88.5771L117.755 88.1945ZM111.578 97.1422C111.487 97.1046 111.304 96.9292 111.216 96.3112C111.134 95.7317 111.162 94.9181 111.311 93.9129C111.609 91.9103 112.372 89.2606 113.537 86.4474L112.614 86.0647C111.426 88.9308 110.635 91.6611 110.322 93.7657C110.166 94.8141 110.124 95.7358 110.226 96.4519C110.322 97.1294 110.576 97.8096 111.196 98.0661L111.578 97.1422ZM113.537 86.4474C114.703 83.6342 116.037 81.2211 117.242 79.5943C117.847 78.7778 118.403 78.1827 118.871 77.8311C119.37 77.4562 119.624 77.4621 119.714 77.4997L120.097 76.5758C119.478 76.3194 118.817 76.6206 118.27 77.0316C117.692 77.466 117.07 78.1474 116.439 78.999C115.172 80.7086 113.801 83.1987 112.614 86.0647L113.537 86.4474ZM119.714 77.4997C119.805 77.5373 119.989 77.7127 120.077 78.3307C120.159 78.9102 120.131 79.7238 119.981 80.729C119.683 82.7316 118.92 85.3812 117.755 88.1945L118.679 88.5771C119.866 85.7111 120.657 82.9808 120.971 80.8762C121.127 79.8278 121.168 78.906 121.067 78.19C120.97 77.5125 120.716 76.8323 120.097 76.5758L119.714 77.4997ZM124.061 103.395L129.203 105.525L129.586 104.601L124.444 102.471L124.061 103.395ZM70.0627 81.0283L75.2043 83.158L75.587 82.2341L70.4454 80.1044L70.0627 81.0283Z" fill="black"/>
</svg>
