<svg width="528" height="80" viewBox="0 0 528 80" fill="none" xmlns="http://www.w3.org/2000/svg">
<path d="M8 40C8 22.3269 22.3269 8 40 8C57.6731 8 72 22.3269 72 40C72 57.6731 86.3269 72 104 72C121.673 72 136 57.6731 136 40C136 22.3269 150.327 8 168 8C185.673 8 200 22.3269 200 40C200 57.6731 214.327 72 232 72C249.673 72 264 57.6731 264 40C264 22.3269 278.327 8 296 8C313.673 8 328 22.3269 328 40C328 57.6731 342.327 72 360 72C377.673 72 392 57.6731 392 40C392 22.3269 406.327 8 424 8C441.673 8 456 22.3269 456 40C456 57.6731 470.327 72 488 72C505.673 72 520 57.6731 520 40" stroke="black" stroke-width="16"/>
</svg>
