<svg width="96" height="96" viewBox="0 0 96 96" fill="none" xmlns="http://www.w3.org/2000/svg">
<g clip-path="url(#clip0_3307_1210)">
<mask id="mask0_3307_1210" style="mask-type:alpha" maskUnits="userSpaceOnUse" x="0" y="0" width="96" height="96">
<path d="M48 96C74.5097 96 96 74.5097 96 48C96 21.4903 74.5097 0 48 0C21.4903 0 0 21.4903 0 48C0 74.5097 21.4903 96 48 96Z" fill="black"/>
</mask>
<g mask="url(#mask0_3307_1210)">
<path d="M48 96C74.5097 96 96 74.5097 96 48C96 21.4903 74.5097 0 48 0C21.4903 0 0 21.4903 0 48C0 74.5097 21.4903 96 48 96Z" fill="black"/>
<path d="M79.7376 84.0105L36.8758 28.7998H28.8V67.1838H35.2606V37.0044L74.6662 87.9171C76.4443 86.7273 78.1382 85.4211 79.7376 84.0105Z" fill="url(#paint0_linear_3307_1210)"/>
<path d="M67.7333 28.7998H61.3333V67.1998H67.7333V28.7998Z" fill="url(#paint1_linear_3307_1210)"/>
</g>
</g>
<defs>
<linearGradient id="paint0_linear_3307_1210" x1="58.1334" y1="62.1331" x2="77.0667" y2="85.5998" gradientUnits="userSpaceOnUse">
<stop stop-color="white"/>
<stop offset="1" stop-color="white" stop-opacity="0"/>
</linearGradient>
<linearGradient id="paint1_linear_3307_1210" x1="64.5333" y1="28.7998" x2="64.4261" y2="56.9998" gradientUnits="userSpaceOnUse">
<stop stop-color="white"/>
<stop offset="1" stop-color="white" stop-opacity="0"/>
</linearGradient>
<clipPath id="clip0_3307_1210">
<rect width="96" height="96" fill="white"/>
</clipPath>
</defs>
</svg>
