<svg width="65" height="96" viewBox="0 0 65 96" fill="none" xmlns="http://www.w3.org/2000/svg">
<g clip-path="url(#clip0_3307_1148)">
<path d="M16.334 96C25.166 96 32.334 88.832 32.334 80V64H16.334C7.50198 64 0.333984 71.168 0.333984 80C0.333984 88.832 7.50198 96 16.334 96Z" fill="#0ACF83"/>
<path d="M0.333984 48C0.333984 39.168 7.50198 32 16.334 32H32.334V64H16.334C7.50198 64 0.333984 56.832 0.333984 48Z" fill="#A259FF"/>
<path d="M0.333984 16C0.333984 7.168 7.50198 0 16.334 0H32.334V32H16.334C7.50198 32 0.333984 24.832 0.333984 16Z" fill="#F24E1E"/>
<path d="M32.334 0H48.334C57.166 0 64.334 7.168 64.334 16C64.334 24.832 57.166 32 48.334 32H32.334V0Z" fill="#FF7262"/>
<path d="M64.334 48C64.334 56.832 57.166 64 48.334 64C39.502 64 32.334 56.832 32.334 48C32.334 39.168 39.502 32 48.334 32C57.166 32 64.334 39.168 64.334 48Z" fill="#1ABCFE"/>
</g>
<defs>
<clipPath id="clip0_3307_1148">
<rect width="64.0128" height="96" fill="white" transform="translate(0.327637)"/>
</clipPath>
</defs>
</svg>
