<svg width="100" height="96" viewBox="0 0 100 96" fill="none" xmlns="http://www.w3.org/2000/svg">
<g clip-path="url(#clip0_3307_1164)">
<path d="M18.2379 0H81.8277C91.4687 0 99.2635 7.79487 99.2635 17.4359V78.5641C99.2635 88.2051 91.4687 96 81.8277 96H18.2379C8.59687 96 0.802002 88.2051 0.802002 78.5641V17.4359C0.802002 7.79487 8.59687 0 18.2379 0Z" fill="#330000"/>
<path d="M48.5148 57.6003H33.2532L30.1353 67.2414C30.0532 67.6106 29.725 67.8568 29.3558 67.8157H21.643C21.1917 67.8157 21.0686 67.5696 21.1917 67.0773L34.4019 29.0465C34.525 28.6362 34.6481 28.185 34.8122 27.6927C34.9763 26.8311 35.0583 25.9286 35.0583 25.026C35.0173 24.8209 35.1814 24.6157 35.3865 24.5747C35.4276 24.5747 35.4686 24.5747 35.5096 24.5747H46.0122C46.3404 24.5747 46.5045 24.6978 46.5455 24.9029L61.5199 67.1593C61.643 67.6106 61.5199 67.8157 61.1096 67.8157H52.5353C52.2481 67.8568 51.9609 67.6516 51.8789 67.3644L48.5148 57.6003ZM35.6327 49.2721H46.0532C45.8071 48.4106 45.4789 47.385 45.1096 46.3183C44.7404 45.2106 44.3712 44.0209 44.0019 42.7901C43.5917 41.5183 43.2224 40.2875 42.8122 39.0157C42.4019 37.7439 42.0327 36.5542 41.7045 35.3644C41.3763 34.2157 41.0891 33.1491 40.8019 32.1645H40.7199C40.3507 33.9286 39.8994 35.6927 39.325 37.4568C38.7096 39.426 38.0942 41.4773 37.4378 43.5286C36.8635 45.6209 36.2481 47.5491 35.6327 49.2721Z" fill="#FF9A00"/>
<path d="M70.4636 31.5899C69.1097 31.6309 67.7969 31.0976 66.8123 30.154C65.8687 29.1284 65.3764 27.7745 65.4174 26.3797C65.3764 24.9848 65.9097 23.672 66.8943 22.7284C67.879 21.7848 69.1918 21.2925 70.5456 21.2925C72.1456 21.2925 73.3764 21.7848 74.279 22.7284C75.1815 23.713 75.6738 25.0258 75.6328 26.3797C75.6738 27.7745 75.1815 29.1284 74.1969 30.154C73.2533 31.1386 71.8584 31.672 70.4636 31.5899ZM65.8687 67.2002V35.6104C65.8687 35.2002 66.0328 35.0361 66.402 35.0361H74.5251C74.8943 35.0361 75.0584 35.2412 75.0584 35.6104V67.2002C75.0584 67.6515 74.8943 67.8566 74.5251 67.8566H66.4841C66.0738 67.8566 65.8687 67.6104 65.8687 67.2002Z" fill="#FF9A00"/>
</g>
<defs>
<clipPath id="clip0_3307_1164">
<rect width="98.4615" height="96" fill="white" transform="translate(0.802002)"/>
</clipPath>
</defs>
</svg>
