<svg width="96" height="58" viewBox="0 0 96 58" fill="none" xmlns="http://www.w3.org/2000/svg">
<g clip-path="url(#clip0_3307_1219)">
<path fill-rule="evenodd" clip-rule="evenodd" d="M48.0174 0.373047C35.2119 0.373047 27.2106 6.75524 24.0078 19.5196C28.8101 13.1374 34.4122 10.7446 40.814 12.3392C44.4665 13.2488 47.0784 15.8907 49.967 18.8157C54.6752 23.5788 60.1248 29.091 72.0252 29.091C84.8289 29.091 92.8321 22.7088 96.033 9.94634C91.2326 16.3285 85.6305 18.7214 79.2287 17.1249C75.5743 16.2153 72.9623 13.5734 70.0738 10.6502C65.3656 5.8834 59.9178 0.373047 48.0174 0.373047ZM24.0078 29.091C11.2041 29.091 3.20091 35.4732 0 48.2376C4.80231 41.8554 10.4044 39.4626 16.8043 41.0572C20.4587 41.9668 23.0707 44.6087 25.9592 47.5337C30.6674 52.2968 36.1152 57.809 48.0174 57.809C60.8211 57.809 68.8243 51.4287 72.0252 38.6643C67.2229 45.0465 61.6208 47.4394 55.219 45.8448C51.5665 44.9333 48.9546 42.2914 46.066 39.3682C41.3578 34.6052 35.9082 29.091 24.0078 29.091Z" fill="#38BDF8"/>
</g>
<defs>
<clipPath id="clip0_3307_1219">
<rect width="96" height="57.2542" fill="white" transform="translate(0 0.373047)"/>
</clipPath>
</defs>
</svg>
