<svg width="99" height="96" viewBox="0 0 99 96" fill="none" xmlns="http://www.w3.org/2000/svg">
<g clip-path="url(#clip0_3307_1154)">
<path d="M81.366 0H17.7762C8.14665 0 0.340332 7.80632 0.340332 17.4359V78.5641C0.340332 88.1937 8.14665 96 17.7762 96H81.366C90.9956 96 98.8019 88.1937 98.8019 78.5641V17.4359C98.8019 7.80632 90.9956 0 81.366 0Z" fill="#001E36"/>
<path d="M22.5112 67.3209V25.1142C22.5112 24.8066 22.6434 24.6518 22.9077 24.6518C23.6114 24.6518 24.2539 24.6415 25.2231 24.6188C26.1913 24.5971 27.2371 24.5751 28.3605 24.5528C29.4835 24.531 30.6725 24.509 31.9274 24.4867C33.1822 24.465 34.4262 24.454 35.6592 24.4536C39.0052 24.4536 41.8233 24.8719 44.1137 25.7086C46.1798 26.4075 48.064 27.5583 49.6292 29.0772C50.9559 30.3938 51.9812 31.9826 52.6344 33.7339C53.2523 35.4382 53.5654 37.2381 53.5592 39.051C53.5592 42.5744 52.7446 45.4807 51.1153 47.7697C49.4753 50.0683 47.17 51.8088 44.5102 52.7566C41.7359 53.7918 38.6532 54.1428 35.263 54.1428C34.2938 54.1428 33.6113 54.1318 33.2153 54.1098C32.8191 54.088 32.2247 54.077 31.4321 54.0767V67.2549C31.4436 67.3357 31.4362 67.418 31.4103 67.4954C31.3845 67.5728 31.3411 67.6431 31.2834 67.7008C31.2257 67.7584 31.1554 67.8019 31.078 67.8277C31.0006 67.8535 30.9183 67.8609 30.8375 67.8494H22.9736C22.6651 67.8494 22.5112 67.6739 22.5112 67.3209ZM31.432 32.5779V46.3441C32.0038 46.3884 32.5321 46.4104 33.0172 46.4101H35.1969C36.8007 46.4048 38.3939 46.1504 39.9196 45.6562C41.2282 45.2675 42.3975 44.5109 43.2882 43.4765C44.1468 42.4641 44.5761 41.055 44.5763 39.2492C44.6111 37.9715 44.2786 36.7107 43.6183 35.6163C42.9242 34.5581 41.921 33.7394 40.7451 33.2715C39.2098 32.6747 37.5698 32.3939 35.9234 32.4459C34.8665 32.4459 33.9308 32.4569 33.1163 32.4789C32.301 32.5016 31.7396 32.5346 31.432 32.5779Z" fill="#31A8FF"/>
<path d="M79.0978 43.841C77.8564 43.2032 76.5344 42.7366 75.1677 42.4539C73.6618 42.1084 72.1222 41.9312 70.5771 41.9255C69.7414 41.9028 68.9068 42.003 68.1002 42.2227C67.5868 42.3371 67.1304 42.6296 66.8121 43.0484C66.5969 43.3834 66.4823 43.7731 66.482 44.1713C66.494 44.5576 66.6333 44.9291 66.8782 45.2281C67.2641 45.6794 67.7355 46.0498 68.2652 46.3179C69.207 46.825 70.1774 47.2772 71.1715 47.672C73.3883 48.414 75.5065 49.4232 77.4794 50.6773C78.8234 51.5255 79.9356 52.6944 80.716 54.0789C81.3722 55.3899 81.7008 56.8405 81.6737 58.3063C81.7132 60.2418 81.1602 62.1432 80.0886 63.7555C78.9413 65.3921 77.3478 66.6646 75.4978 67.4213C73.4936 68.3017 71.0167 68.742 68.0671 68.7424C66.1934 68.7613 64.3227 68.5842 62.4858 68.2139C61.0385 67.9486 59.6297 67.5048 58.2915 66.8929C58.1471 66.8183 58.0269 66.7042 57.945 66.5638C57.8632 66.4234 57.823 66.2626 57.8291 66.1002V58.9667C57.8212 58.8969 57.8324 58.8262 57.8615 58.7622C57.8906 58.6982 57.9365 58.6433 57.9944 58.6034C58.0511 58.5714 58.1163 58.5574 58.1812 58.5633C58.2461 58.5692 58.3076 58.5947 58.3576 58.6365C59.9379 59.5683 61.6538 60.248 63.4435 60.651C65.021 61.0464 66.6391 61.257 68.2653 61.2785C69.8061 61.2785 70.94 61.0804 71.6669 60.6841C71.9951 60.5338 72.2728 60.2916 72.4662 59.9868C72.6597 59.682 72.7606 59.3277 72.7568 58.9667C72.7568 58.395 72.4266 57.8446 71.7661 57.3155C71.1056 56.787 69.7625 56.1485 67.7368 55.3999C65.6629 54.6781 63.6964 53.6782 61.8913 52.4277C60.6002 51.5297 59.537 50.3422 58.7869 48.9599C58.1373 47.6584 57.8089 46.2202 57.8292 44.7657C57.8255 43.0181 58.3056 41.3035 59.2162 39.8119C60.2545 38.1693 61.7455 36.8618 63.5097 36.0469C65.4468 35.0789 67.8686 34.5945 70.7753 34.5938C72.4776 34.5801 74.1782 34.7016 75.8613 34.9571C77.08 35.1117 78.2715 35.434 79.402 35.9148C79.4917 35.9406 79.5742 35.9868 79.6429 36.0498C79.7117 36.1129 79.7649 36.191 79.7983 36.2781C79.8429 36.4394 79.8652 36.6061 79.8644 36.7735V43.4447C79.869 43.5223 79.8531 43.5998 79.8183 43.6693C79.7835 43.7389 79.7311 43.7981 79.6663 43.841C79.5779 43.8849 79.4807 43.9078 79.382 43.9078C79.2834 43.9078 79.1861 43.885 79.0978 43.841Z" fill="#31A8FF"/>
</g>
<defs>
<clipPath id="clip0_3307_1154">
<rect width="98.4615" height="96" fill="white" transform="translate(0.340332)"/>
</clipPath>
</defs>
</svg>
