<svg width="96" height="96" viewBox="0 0 96 96" fill="none" xmlns="http://www.w3.org/2000/svg">
<g clip-path="url(#clip0_3309_1226)">
<path d="M96 48C96 74.4 74.4 96 48 96C21.6 96 0 74.4 0 48C0 21.6 21.6 0 48 0C74.4 0 96 21.6 96 48Z" fill="#4353FF"/>
<path d="M62.6401 41.8319C62.6401 41.8319 58.4881 54.8399 58.1761 55.9439C58.0561 54.8399 55.0321 31.4639 55.0321 31.4639C47.9521 31.4639 44.1841 36.4799 42.1921 41.8319C42.1921 41.8319 37.1521 54.8879 36.7441 55.9919C36.7201 54.9599 35.9761 41.9759 35.9761 41.9759C35.5441 35.4479 29.5921 31.4879 24.7681 31.4879L30.5761 66.9119C37.9921 66.8879 41.9761 61.8719 44.0641 56.5439C44.0641 56.5439 48.5041 45.0239 48.6961 44.4959C48.7441 44.9999 51.8881 66.9119 51.8881 66.9119C59.3041 66.9119 63.3121 62.2079 65.4721 57.0719L75.8401 31.4639C68.4961 31.4639 64.6321 36.4799 62.6401 41.8319Z" fill="white"/>
</g>
<defs>
<clipPath id="clip0_3309_1226">
<rect width="96" height="96" fill="white"/>
</clipPath>
</defs>
</svg>
